<svg viewBox="0 0 45 40" fill="none" xmlns="http://www.w3.org/2000/svg">
<path d="M19.8029 27.7464C24.005 29.2874 28.665 27.1276 30.206 22.9193C30.404 22.3809 30.5402 21.8301 30.6206 21.2793H37.589L44.9102 21.3597L36.8278 24.9492C36.7907 25.0667 36.7535 25.1843 36.7102 25.3081C33.8511 33.112 25.2118 37.116 17.4141 34.263C11.702 32.1713 8.03212 26.9852 7.58654 21.2917H14.5611C14.9758 24.1446 16.9004 26.6882 19.7967 27.7526L19.8029 27.7464Z" fill="#000"/>
<path d="M25.4383 11.7141C21.2362 10.1732 16.5762 12.333 15.0352 16.5413C14.8372 17.0797 14.701 17.6305 14.6206 18.1813H7.64597L0.324821 18.1008L8.40717 14.5114C8.4443 14.3938 8.48144 14.2762 8.52476 14.1525C11.3777 6.35478 20.017 2.34455 27.8209 5.20369C33.533 7.29545 37.2029 12.4815 37.6484 18.1751H30.6739C30.2592 15.3221 28.3346 12.7786 25.4383 11.7141Z" fill="#000"/>
</svg>
